<?xml version="1.0" encoding="utf-8"?>
<!-- Generator: Adobe Illustrator 16.0.0, SVG Export Plug-In . SVG Version: 6.00 Build 0)  -->
<!DOCTYPE svg PUBLIC "-//W3C//DTD SVG 1.1//EN" "http://www.w3.org/Graphics/SVG/1.1/DTD/svg11.dtd">
<svg version="1.1" id="Layer_1" xmlns="http://www.w3.org/2000/svg" xmlns:xlink="http://www.w3.org/1999/xlink" x="0px" y="0px"
	 width="792px" height="612px" viewBox="0 0 792 612" enable-background="new 0 0 792 612" xml:space="preserve">
<path fill-rule="evenodd" clip-rule="evenodd" fill="#BA332F" d="M186.18,359.761c0.12-0.537,0.263-1.07,0.356-1.612
	c0.483-2.815,1.472-5.417,3.236-7.69c2.365-3.049,5.446-4.905,9.273-5.453c3.125-0.448,6.217-0.355,9.19,0.856
	c4.124,1.681,6.569,4.75,7.459,9.09c0.048,0.233,0.089,0.469,0.156,0.826c-0.757,0.009-1.487,0.021-2.216,0.026
	c-0.717,0.004-1.434,0-2.178,0c-0.175-0.575-0.306-1.124-0.506-1.646c-0.865-2.262-2.482-3.807-4.726-4.626
	c-2.546-0.929-5.162-1.005-7.759-0.184c-2.394,0.757-4.148,2.341-5.441,4.454c-1.193,1.951-1.761,4.101-2.004,6.36
	c-0.272,2.526-0.129,5.026,0.377,7.508c0.338,1.655,0.939,3.209,1.907,4.608c1.558,2.255,3.744,3.461,6.415,3.87
	c1.497,0.229,2.978,0.202,4.461-0.127c2.652-0.59,4.568-2.146,5.911-4.451c0.727-1.249,1.213-2.596,1.496-4.016
	c0.035-0.173,0.107-0.339,0.17-0.537c1.411,0,2.812,0,4.285,0c0,0.239,0.034,0.472-0.005,0.689c-0.602,3.344-1.86,6.364-4.351,8.773
	c-2.066,1.998-4.522,3.202-7.36,3.631c-2.979,0.449-5.914,0.314-8.744-0.802c-3.719-1.466-6.193-4.202-7.772-7.804
	c-0.786-1.791-1.228-3.68-1.452-5.622c-0.015-0.126-0.116-0.242-0.177-0.363C186.18,363.601,186.18,361.681,186.18,359.761z"/>
<path fill-rule="evenodd" clip-rule="evenodd" fill="#BA332F" d="M605.761,379.561c-0.491,0.083-0.986,0.146-1.473,0.252
	c-0.934,0.202-1.85,0.117-2.748-0.158c-1.076-0.33-1.785-1.064-2.173-2.11c-0.134-0.358-0.241-0.727-0.393-1.189
	c-0.252,0.235-0.461,0.43-0.669,0.623c-3.079,2.863-6.7,3.738-10.731,2.744c-3.14-0.774-4.974-3.279-5.039-6.504
	c-0.04-1.99,0.394-3.812,1.771-5.31c1.199-1.305,2.747-2.029,4.449-2.359c1.672-0.323,3.371-0.504,5.061-0.738
	c0.979-0.137,1.963-0.227,2.938-0.389c1.501-0.25,2.161-1.068,2.166-2.604c0.005-1.732-0.849-3.045-2.479-3.703
	c-1.813-0.731-3.681-0.762-5.545-0.225c-1.671,0.48-2.655,1.654-3.121,3.295c-0.091,0.316-0.151,0.641-0.229,0.961
	c-0.006,0.022-0.041,0.038-0.095,0.085c-1.16,0-2.352,0-3.615,0c0-0.326-0.044-0.649,0.007-0.955c0.606-3.636,2.56-5.78,6.032-6.682
	c2.556-0.662,5.165-0.658,7.742-0.035c3.382,0.818,5.387,3.3,5.423,6.792c0.046,4.409,0.048,8.82,0.004,13.229
	c-0.019,1.899,0.793,2.121,2.093,1.937c0.205-0.028,0.416-0.012,0.624-0.017C605.761,377.521,605.761,378.54,605.761,379.561z
	 M598.884,367.116c-0.509,0.155-0.926,0.331-1.361,0.407c-1.764,0.309-3.532,0.586-5.3,0.875c-1.122,0.184-2.232,0.416-3.263,0.918
	c-1.615,0.788-2.263,1.914-2.082,3.692c0.208,2.051,1.333,3.256,3.111,3.527c2.618,0.401,4.984-0.183,7.01-1.946
	c1.105-0.962,1.827-2.142,1.876-3.637C598.916,369.699,598.884,368.443,598.884,367.116z"/>
<path fill-rule="evenodd" clip-rule="evenodd" fill="#BA332F" d="M361.55,382.308c1.413,0,2.782,0,4.185,0
	c0.082,0.244,0.167,0.491,0.247,0.741c0.564,1.768,1.817,2.768,3.582,3.164c1.408,0.316,2.809,0.183,4.171-0.241
	c1.63-0.507,2.806-1.593,3.558-3.102c0.904-1.812,1.067-3.769,1.003-5.919c-0.34,0.348-0.573,0.599-0.819,0.835
	c-2.08,2.002-4.595,2.598-7.378,2.212c-4.025-0.558-6.542-2.998-8.027-6.628c-0.98-2.394-1.226-4.913-1.149-7.485
	c0.043-1.417,0.188-2.812,0.61-4.162c0.902-2.885,2.5-5.289,5.298-6.597c3.011-1.408,6.072-1.489,9.009,0.323
	c0.879,0.542,1.562,1.302,2.188,2.114c0.142,0.185,0.279,0.372,0.546,0.729c0-1.236,0-2.281,0-3.368c1.335,0,2.58,0,3.882,0
	c0.016,0.235,0.046,0.467,0.046,0.698c0.002,7.289,0.01,14.578-0.004,21.867c-0.004,1.981-0.195,3.943-0.826,5.844
	c-1.046,3.148-3.146,5.16-6.374,5.972c-2.664,0.671-5.335,0.756-7.987-0.021c-3.104-0.91-4.935-3.02-5.62-6.155
	C361.633,382.875,361.602,382.615,361.55,382.308z M365.253,367.07c-0.052,1.932,0.174,3.855,0.949,5.676
	c1.804,4.238,6.24,4.411,8.789,2.971c1.805-1.021,2.765-2.689,3.242-4.651c0.474-1.951,0.379-3.934,0.108-5.895
	c-0.154-1.115-0.465-2.221-0.813-3.296c-0.345-1.063-0.971-1.979-1.847-2.71c-1.28-1.067-2.783-1.293-4.382-1.228
	c-2.831,0.114-4.717,1.589-5.491,4.305C365.361,363.812,365.219,365.414,365.253,367.07z"/>
<path fill-rule="evenodd" clip-rule="evenodd" fill="#BA332F" d="M457.868,345.728c1.562,0,3.026,0,4.554,0
	c0.018,0.23,0.05,0.459,0.05,0.688c0.002,6.987,0.005,13.976-0.002,20.963c-0.002,2.024-0.321,4.002-1.118,5.869
	c-1.389,3.253-3.814,5.431-7.19,6.416c-3.561,1.039-7.173,0.994-10.702-0.17c-3.811-1.258-6.108-3.989-7.031-7.848
	c-0.311-1.301-0.508-2.661-0.518-3.996c-0.051-7.167-0.027-14.334-0.028-21.502c0-0.114,0.017-0.229,0.03-0.395
	c1.516,0,2.998,0,4.586,0c0,0.319,0,0.64,0,0.959c0,6.567,0.006,13.135-0.003,19.702c-0.002,1.658,0.134,3.287,0.707,4.859
	c1.075,2.944,3.229,4.48,6.283,4.897c1.443,0.198,2.86,0.144,4.282-0.16c3.042-0.649,4.827-2.584,5.66-5.495
	c0.399-1.396,0.441-2.833,0.441-4.273c-0.003-6.479-0.001-12.956-0.001-19.434C457.868,346.482,457.868,346.156,457.868,345.728z"/>
<path fill-rule="evenodd" clip-rule="evenodd" fill="#BA332F" d="M553.559,376.471c0,1.011,0,1.932,0,2.927
	c-1.377,0.579-2.794,0.718-4.242,0.229c-1.549-0.522-2.143-1.796-2.46-3.284c-0.637,0.552-1.21,1.125-1.855,1.598
	c-2.833,2.072-6.009,2.632-9.378,1.837c-2.982-0.704-4.775-2.645-5.172-5.723c-0.43-3.337,0.778-6.438,4.258-7.882
	c0.928-0.385,1.929-0.653,2.922-0.812c2.246-0.357,4.509-0.606,6.763-0.911c1.34-0.182,2.137-0.757,2.282-1.799
	c0.093-0.667,0.065-1.388-0.084-2.044c-0.324-1.419-1.368-2.216-2.685-2.648c-1.662-0.547-3.369-0.583-5.048-0.117
	c-1.808,0.502-2.854,1.778-3.292,3.576c-0.063,0.259-0.106,0.521-0.164,0.807c-1.266,0-2.483,0-3.79,0
	c0.062-1.358,0.377-2.614,0.979-3.79c0.874-1.71,2.271-2.872,4.057-3.489c3.084-1.068,6.237-1.148,9.358-0.207
	c3.11,0.938,4.815,3.231,4.854,6.464c0.052,4.409,0.02,8.819,0.031,13.229c0,0.357,0.021,0.721,0.09,1.069
	c0.144,0.735,0.48,1.012,1.228,1.052c0.208,0.012,0.419-0.012,0.628-0.024C553.045,376.514,553.252,376.495,553.559,376.471z
	 M546.668,367.165c-0.665,0.178-1.315,0.404-1.984,0.521c-1.531,0.267-3.073,0.477-4.61,0.715c-1.245,0.193-2.468,0.472-3.584,1.088
	c-1.209,0.667-1.851,1.688-1.788,3.08c0.024,0.531,0.137,1.069,0.291,1.58c0.389,1.292,1.301,2.1,2.597,2.34
	c2.818,0.522,5.353-0.124,7.483-2.092c0.808-0.746,1.478-1.659,1.565-2.76C546.757,370.154,546.668,368.655,546.668,367.165z"/>
<path fill-rule="evenodd" clip-rule="evenodd" fill="#BA332F" d="M336.998,371.854c1.357,0,2.667,0,4.047,0
	c-0.716,3.09-2.189,5.602-5.057,6.984c-3.587,1.729-7.297,1.773-10.94,0.148c-2.347-1.047-3.995-2.904-4.854-5.3
	c-1.666-4.648-1.569-9.295,0.647-13.76c1.416-2.852,3.738-4.746,6.88-5.445c3.281-0.729,6.436-0.484,9.219,1.659
	c1.431,1.102,2.459,2.52,3.217,4.147c1.219,2.618,1.461,5.384,1.315,8.281c-5.992,0-11.918,0-17.902,0
	c-0.085,0.929,0.138,1.767,0.326,2.592c0.379,1.666,1.059,3.178,2.521,4.21c0.878,0.62,1.876,0.931,2.922,1.064
	c2.2,0.281,4.241-0.077,5.94-1.636C336.161,373.991,336.534,373.347,336.998,371.854z M337.193,365.25
	c-0.128-1.637-0.394-3.151-1.187-4.531c-0.598-1.041-1.414-1.879-2.53-2.33c-2.942-1.189-6.737-0.668-8.728,2.781
	c-0.512,0.888-0.854,1.838-1.043,2.843c-0.074,0.396-0.118,0.797-0.182,1.237C328.106,365.25,332.588,365.25,337.193,365.25z"/>
<path fill-rule="evenodd" clip-rule="evenodd" fill="#BA332F" d="M225.203,379.379c-1.411,0-2.72,0-4.084,0
	c0-11.198,0-22.371,0-33.612c0.627-0.16,1.312-0.041,1.987-0.063c0.658-0.021,1.317-0.004,2.072-0.004c0,4.095,0,8.151,0,12.409
	c0.271-0.316,0.405-0.466,0.532-0.62c1.819-2.218,4.125-3.396,7.031-3.344c1.329,0.024,2.622,0.171,3.859,0.692
	c2.413,1.018,3.754,2.887,4.266,5.392c0.143,0.699,0.204,1.427,0.206,2.142c0.017,5.458,0.01,10.916,0.009,16.374
	c0,0.202-0.021,0.404-0.033,0.635c-1.363,0-2.673,0-4.101,0c0-0.317,0-0.635,0-0.953c0-4.798,0.009-9.597-0.008-14.395
	c-0.003-0.836-0.059-1.679-0.185-2.504c-0.307-2.017-1.325-3.124-3.337-3.464c-0.927-0.156-1.923-0.146-2.852,0.006
	c-2.267,0.371-3.702,1.838-4.592,3.876c-0.52,1.19-0.754,2.455-0.756,3.757c-0.006,4.198-0.009,8.397-0.014,12.596
	C225.203,378.624,225.203,378.949,225.203,379.379z"/>
<path fill-rule="evenodd" clip-rule="evenodd" fill="#BA332F" d="M257.102,354.053c5.706-0.048,9.372,3.729,10.646,7.764
	c1.243,3.936,1.247,7.883-0.426,11.671c-1.859,4.212-5.18,6.464-9.842,6.605c-2.864,0.087-5.453-0.674-7.628-2.592
	c-1.826-1.61-3.014-3.627-3.592-5.989c-0.839-3.426-0.819-6.846,0.437-10.158c1.317-3.474,3.714-5.905,7.4-6.851
	C255.071,354.253,256.098,354.197,257.102,354.053z M250,367.152c0.087,0.891,0.132,1.789,0.272,2.673
	c0.222,1.397,0.693,2.709,1.488,3.9c2.456,3.68,7.684,3.516,10.073,0.825c0.786-0.884,1.374-1.884,1.741-3.004
	c0.556-1.694,0.715-3.437,0.625-5.217c-0.079-1.566-0.31-3.094-0.981-4.522c-1.611-3.428-4.481-4.725-8.038-3.825
	c-2.065,0.522-3.337,2.034-4.172,3.912C250.268,363.56,250.023,365.332,250,367.152z"/>
<path fill-rule="evenodd" clip-rule="evenodd" fill="#BA332F" d="M314.288,379.385c-1.438,0-2.752,0-4.185,0
	c0-0.341,0-0.658,0-0.976c0-4.649,0.014-9.299-0.011-13.948c-0.005-0.983-0.075-1.979-0.249-2.946
	c-0.35-1.943-1.52-3.136-3.499-3.466c-1.256-0.209-2.506-0.218-3.718,0.241c-1.843,0.698-2.923,2.11-3.605,3.888
	c-0.545,1.423-0.666,2.918-0.674,4.417c-0.021,3.959-0.007,7.919-0.007,11.879c0,0.29,0,0.581,0,0.903c-1.402,0-2.712,0-4.081,0
	c0-8.146,0-16.283,0-24.46c1.276,0,2.525,0,3.863,0c0,1.111,0,2.226,0,3.547c0.316-0.396,0.498-0.623,0.678-0.852
	c1.846-2.34,4.224-3.587,7.238-3.447c0.949,0.044,1.915,0.146,2.833,0.38c3.019,0.767,4.878,3.126,5.272,6.331
	c0.113,0.919,0.136,1.853,0.139,2.78c0.013,4.919,0.006,9.839,0.006,14.758C314.288,378.71,314.288,379.005,314.288,379.385z"/>
<path fill-rule="evenodd" clip-rule="evenodd" fill="#BA332F" d="M414.221,370.603c1.217,0,2.468,0,3.801,0
	c-0.012,0.229,0.003,0.431-0.034,0.622c-0.26,1.323-0.612,2.617-1.237,3.824c-1.079,2.083-2.678,3.594-4.901,4.377
	c-2.476,0.872-4.994,0.951-7.497,0.156c-3.109-0.987-5.066-3.217-6.239-6.157c-0.968-2.429-1.198-4.985-1.027-7.589
	c0.117-1.776,0.403-3.509,1.126-5.144c1.83-4.146,4.959-6.406,9.546-6.539c2.165-0.063,4.248,0.232,6.124,1.394
	c2.784,1.723,4.048,4.301,4.146,7.513c0.001,0.021-0.038,0.043-0.098,0.105c-1.21,0-2.461,0-3.783,0
	c-0.08-0.363-0.164-0.763-0.258-1.159c-0.592-2.49-2.484-4.105-5.034-4.239c-0.742-0.039-1.51-0.036-2.234,0.105
	c-1.796,0.35-3.029,1.48-3.904,3.045c-0.683,1.221-1.066,2.548-1.198,3.922c-0.229,2.395-0.223,4.79,0.483,7.128
	c0.12,0.398,0.271,0.792,0.447,1.169c1.015,2.153,2.723,3.263,5.098,3.372c2.487,0.115,4.371-0.896,5.554-3.074
	C413.563,372.577,413.828,371.611,414.221,370.603z"/>
<path fill-rule="evenodd" clip-rule="evenodd" fill="#BA332F" d="M523.701,370.626c1.32,0,2.599,0,3.904,0
	c-0.244,1.631-0.649,3.151-1.403,4.566c-1.169,2.192-2.92,3.681-5.313,4.396c-2.021,0.603-4.067,0.696-6.124,0.239
	c-3.007-0.667-5.111-2.506-6.554-5.163c-0.929-1.71-1.387-3.569-1.551-5.488c-0.226-2.645-0.113-5.272,0.815-7.8
	c1.277-3.473,3.529-5.985,7.225-6.866c3.124-0.744,6.194-0.566,8.996,1.223c2.149,1.372,3.303,3.407,3.744,5.877
	c0.087,0.492,0.123,0.993,0.19,1.547c-1.355,0-2.632,0-3.987,0c-0.058-0.324-0.104-0.671-0.182-1.011
	c-0.597-2.646-2.554-4.249-5.292-4.411c-2.301-0.138-4.214,0.568-5.501,2.531c-0.517,0.789-0.93,1.685-1.201,2.589
	c-0.6,1.999-0.672,4.061-0.478,6.14c0.12,1.291,0.339,2.551,0.813,3.757c1.481,3.767,6.284,5.039,9.392,2.479
	c1.28-1.054,1.917-2.494,2.309-4.064c0.035-0.144,0.075-0.287,0.116-0.43C523.629,370.709,523.655,370.688,523.701,370.626z"/>
<path fill-rule="evenodd" clip-rule="evenodd" fill="#BA332F" d="M416.264,436.981c-0.936,0-1.829,0-2.827,0
	c0-0.715,0-1.415,0-2.296c-0.271,0.303-0.409,0.449-0.539,0.604c-1.628,1.921-3.724,2.501-6.143,2.137
	c-2.51-0.377-4.333-1.781-5.397-4.013c-1.661-3.48-1.865-7.112-0.399-10.709c0.914-2.244,2.567-3.835,5.029-4.337
	c2.714-0.554,5.046,0.105,6.782,2.389c0.088,0.114,0.175,0.229,0.388,0.51c0-3.217,0-6.242,0-9.329c1.064,0,2.041,0,3.022,0
	C416.373,412.562,416.458,434.586,416.264,436.981z M413.156,428.438c0-0.391,0.029-0.782-0.005-1.169
	c-0.14-1.594-0.444-3.139-1.392-4.484c-0.495-0.705-1.117-1.243-1.933-1.543c-2.792-1.026-5.486,0.392-6.197,3.272
	c-0.354,1.438-0.448,2.903-0.328,4.373c0.097,1.192,0.298,2.368,0.844,3.464c1.079,2.163,3.033,2.848,5.271,2.384
	c1.746-0.362,2.749-1.611,3.356-3.201C413.151,430.542,413.231,429.494,413.156,428.438z"/>
<path fill-rule="evenodd" clip-rule="evenodd" fill="#BA332F" d="M325.535,422.583c4.062,0,8.073,0,12.134,0
	c0,0.995,0,1.942,0,2.912c0.001-0.002-0.019,0.021-0.041,0.041c-0.021,0.02-0.042,0.043-0.068,0.054
	c-0.027,0.012-0.059,0.014-0.088,0.014c-3.957,0.001-7.913,0.001-11.995,0.001c-0.001,1.283-0.003,2.529-0.003,3.774
	c0,1.26,0,2.52,0,3.779c0,1.253,0,2.505,0,3.805c-1.143,0-2.211,0-3.287,0c-0.159-0.576-0.212-23.85-0.047-25.042
	c5.74,0,11.484,0,17.281,0c0,0.989,0,1.935,0,2.872c-0.032,0.028-0.053,0.05-0.077,0.067c-0.024,0.017-0.052,0.04-0.077,0.04
	c-4.557,0.002-9.113,0.002-13.731,0.002C325.535,417.469,325.535,419.973,325.535,422.583z"/>
<path fill-rule="evenodd" clip-rule="evenodd" fill="#BA332F" d="M493.772,376.168c0,0.939,0.003,1.745-0.001,2.551
	c-0.001,0.207-0.019,0.413-0.032,0.678c-1.79,0.293-3.55,0.564-5.336,0.042c-1.231-0.359-2.052-1.136-2.324-2.371
	c-0.205-0.927-0.338-1.889-0.345-2.837c-0.033-4.976-0.016-9.951-0.016-14.927c0-0.321,0-0.644,0-1.026c-1.156,0-2.224,0-3.347,0
	c0-1.127,0-2.19,0-3.326c1.053-0.177,2.153-0.002,3.324-0.101c0-2.284,0-4.544,0-6.851c1.422,0,2.754,0,4.154,0
	c0,2.273,0,4.512,0,6.832c1.308,0,2.554,0,3.86,0c0,1.17,0,2.257,0,3.423c-1.259,0-2.506,0-3.798,0
	c-0.021,0.305-0.051,0.536-0.051,0.768c-0.002,4.976-0.004,9.951,0,14.927c0.001,1.475,0.629,2.141,2.099,2.215
	C492.524,376.192,493.091,376.168,493.772,376.168z"/>
<path fill-rule="evenodd" clip-rule="evenodd" fill="#BA332F" d="M436.852,434.858c0,0.702,0,1.38,0,2.12
	c-0.997,0.469-2.035,0.503-3.107,0.202c-1.196-0.336-1.615-1.306-1.93-2.439c-0.224,0.212-0.392,0.375-0.564,0.534
	c-2.256,2.066-4.923,2.706-7.841,2.001c-2.602-0.629-4.031-2.688-3.827-5.528c0.191-2.665,1.691-4.371,4.378-4.997
	c1.162-0.271,2.36-0.383,3.544-0.556c0.889-0.129,1.784-0.216,2.67-0.363c1.08-0.18,1.542-0.747,1.568-1.842
	c0.032-1.375-0.597-2.359-1.886-2.854c-1.36-0.522-2.756-0.534-4.14-0.108c-1,0.308-1.698,0.988-2.074,1.97
	c-0.138,0.358-0.218,0.739-0.34,1.163c-0.895,0-1.805,0-2.794,0c0.137-2.172,0.961-3.896,2.879-4.972
	c1.709-0.959,3.593-1.104,5.494-0.971c0.856,0.061,1.729,0.222,2.543,0.493c2.229,0.744,3.408,2.484,3.448,5.032
	c0.035,2.249,0.01,4.499,0.01,6.749c0.001,1.02-0.008,2.04,0.003,3.06c0.013,1.151,0.252,1.365,1.401,1.308
	C436.46,434.852,436.634,434.858,436.852,434.858z M431.653,428.037c-1.49,0.233-2.993,0.443-4.484,0.714
	c-0.817,0.148-1.64,0.338-2.419,0.619c-1.556,0.56-2.044,1.396-1.894,3.025c0.116,1.264,0.897,2.184,2.137,2.437
	c1.862,0.38,3.562-0.041,5.075-1.168c0.758-0.564,1.439-1.288,1.553-2.232C431.758,430.289,431.653,429.119,431.653,428.037z"/>
<path fill-rule="evenodd" clip-rule="evenodd" fill="#BA332F" d="M473.521,427.821c-0.02,1.956-0.372,3.825-1.338,5.533
	c-1.448,2.561-3.656,3.962-6.606,4.153c-4.83,0.314-7.886-2.816-8.75-6.518c-0.678-2.906-0.572-5.779,0.839-8.473
	c1.553-2.965,4.367-4.492,7.941-4.312c4.032,0.202,6.986,3.31,7.65,7.211C473.394,426.209,473.437,427.019,473.521,427.821z
	 M459.709,428.053c-0.01,0.908,0.075,2.042,0.459,3.126c1.068,3.018,3.478,4.253,6.343,3.443c1.656-0.469,2.59-1.74,3.178-3.291
	c0.61-1.607,0.656-3.282,0.477-4.956c-0.142-1.315-0.561-2.56-1.375-3.645c-1.019-1.357-2.407-1.947-4.057-1.878
	c-2.016,0.084-3.393,1.157-4.254,2.952C459.869,425.078,459.713,426.433,459.709,428.053z"/>
<path fill-rule="evenodd" clip-rule="evenodd" fill="#BA332F" d="M358.718,427.928c-0.032,2.148-0.461,4.17-1.666,5.975
	c-1.558,2.334-3.754,3.512-6.557,3.617c-4.942,0.188-7.921-3.275-8.6-7.158c-0.408-2.333-0.345-4.65,0.532-6.891
	c1.278-3.27,4.264-5.512,8.407-5.265c3.934,0.234,6.887,3.181,7.59,7.051C358.584,426.136,358.623,427.037,358.718,427.928z
	 M355.419,427.938c0.041-1.597-0.188-3.092-0.943-4.466c-1.326-2.413-3.692-3.111-6.037-2.323c-1.525,0.514-2.437,1.7-2.96,3.164
	c-0.813,2.271-0.78,4.579-0.089,6.871c0.324,1.075,0.925,2.001,1.821,2.716c1.833,1.466,5.717,1.618,7.418-1.913
	C355.25,430.695,355.467,429.314,355.419,427.938z"/>
<path fill-rule="evenodd" clip-rule="evenodd" fill="#BA332F" d="M273.39,379.342c0-11.165,0-22.337,0-33.508
	c0.637-0.167,3.105-0.197,4.11-0.046c0,11.169,0,22.344,0,33.518C276.914,379.482,274.245,379.51,273.39,379.342z"/>
<path fill-rule="evenodd" clip-rule="evenodd" fill="#BA332F" d="M491.903,436.996c-1.031,0-2.032,0-3.097,0
	c0-0.353,0-0.647,0-0.944c0-3.418,0.012-6.837-0.01-10.255c-0.005-0.744-0.058-1.502-0.212-2.227
	c-0.317-1.496-1.206-2.232-2.698-2.478c-3.151-0.518-4.926,1.395-5.454,3.593c-0.208,0.864-0.313,1.771-0.325,2.661
	c-0.04,2.908-0.016,5.817-0.016,8.726c0,0.295,0,0.589,0,0.932c-1.05,0-2.027,0-3.067,0c0-6.061,0-12.102,0-18.258
	c0.919-0.062,1.859-0.021,2.894-0.026c0,0.83,0,1.613,0,2.604c0.292-0.343,0.442-0.516,0.589-0.691
	c1.533-1.846,3.494-2.638,5.882-2.417c1.34,0.124,2.583,0.466,3.624,1.379c1.31,1.146,1.776,2.654,1.9,4.316
	c0.021,0.269,0.027,0.539,0.027,0.809c0.002,3.869,0.002,7.737,0,11.605C491.94,436.53,491.919,436.736,491.903,436.996z"/>
<path fill-rule="evenodd" clip-rule="evenodd" fill="#BA332F" d="M376.989,437.004c-0.981,0-1.9,0-2.864,0c0-0.856,0-1.661,0-2.621
	c-0.255,0.303-0.421,0.49-0.578,0.686c-2.289,2.856-5.646,2.93-8.3,1.846c-1.662-0.679-2.494-2.087-2.804-3.806
	c-0.111-0.616-0.167-1.25-0.169-1.876c-0.015-3.986-0.008-7.973-0.006-11.959c0-0.146,0.021-0.293,0.038-0.498
	c1.021,0,2.02,0,3.096,0c0,0.346,0,0.639,0,0.933c0,3.447-0.01,6.894,0.009,10.341c0.003,0.744,0.063,1.496,0.182,2.23
	c0.214,1.328,0.916,2.353,3,2.547c3.061,0.286,4.659-1.755,5.14-4.178c0.156-0.786,0.2-1.604,0.206-2.408
	c0.024-2.848,0.01-5.695,0.01-8.543c0-0.296,0-0.593,0-0.936c1.028,0,2.006,0,2.983,0
	C377.108,419.352,377.166,435.755,376.989,437.004z"/>
<path fill-rule="evenodd" clip-rule="evenodd" fill="#BA332F" d="M351.194,379.386c-1.434,0-2.748,0-4.122,0
	c0-8.155,0-16.286,0-24.462c0.208-0.015,0.41-0.042,0.612-0.043c1.073-0.004,2.146-0.002,3.288-0.002c0,1.293,0,2.511,0,3.729
	c0.045,0.019,0.09,0.037,0.136,0.056c0.124-0.168,0.258-0.33,0.37-0.506c0.648-1.016,1.382-1.953,2.36-2.681
	c1.517-1.128,3.19-1.558,5.167-1.188c0,0.742,0,1.451,0,2.159c0,0.684,0,1.366,0,2.023c-0.958,0.091-1.86,0.092-2.723,0.274
	c-2.73,0.58-4.284,2.372-4.84,5.037c-0.194,0.928-0.23,1.9-0.236,2.854c-0.025,3.926-0.011,7.852-0.011,11.777
	C351.194,378.708,351.194,379.002,351.194,379.386z"/>
<path fill-rule="evenodd" clip-rule="evenodd" fill="#BA332F" d="M481.683,354.369c0,1.403,0,2.717,0,4.097
	c-0.657,0.056-1.301,0.109-1.943,0.165c-3.16,0.271-5.268,2.395-5.74,5.685c-0.119,0.827-0.164,1.67-0.168,2.506
	c-0.017,4.019-0.008,8.038-0.008,12.057c0,0.145,0,0.289,0,0.482c-1.387,0-2.717,0-4.091,0c0-8.131,0-16.245,0-24.421
	c1.263,0,2.532,0,3.869,0c0,1.274,0,2.554,0,4.046c0.337-0.518,0.553-0.857,0.776-1.192c0.918-1.369,2.045-2.5,3.587-3.164
	c1.018-0.438,2.078-0.546,3.167-0.435C481.303,354.212,481.468,354.299,481.683,354.369z"/>
<path fill-rule="evenodd" clip-rule="evenodd" fill="#BA332F" d="M570.354,354.396c0,1.327,0,2.666,0,4.073
	c-0.643,0.054-1.285,0.108-1.928,0.162c-3.123,0.26-5.188,2.372-5.686,5.425c-0.139,0.853-0.188,1.728-0.193,2.593
	c-0.02,4.049-0.009,8.098-0.009,12.146c0,0.173,0,0.346,0,0.566c-1.381,0-2.689,0-4.008,0c-0.175-0.604-0.251-22.339-0.067-24.483
	c0.635,0,1.283,0,1.933,0c0.622,0,1.243,0,1.925,0c0,1.309,0,2.529,0,3.957c0.234-0.306,0.358-0.442,0.454-0.596
	c0.783-1.264,1.731-2.373,3.007-3.165c1.212-0.754,2.541-1.022,3.955-0.894c0.119,0.011,0.24,0.025,0.354,0.061
	C570.172,354.268,570.243,354.329,570.354,354.396z"/>
<path fill-rule="evenodd" clip-rule="evenodd" fill="#BA332F" d="M384.744,436.985c-1.068,0-2.02,0-3.023,0
	c0-6.063,0-12.102,0-18.185c0.939,0,1.855,0,2.877,0c0,0.758,0,1.518,0,2.491c0.283-0.304,0.419-0.433,0.536-0.577
	c1.459-1.806,3.335-2.674,5.662-2.484c0.652,0.054,1.32,0.116,1.943,0.301c2.229,0.659,3.634,2.424,3.837,5.187
	c0.064,0.864,0.024,1.738,0.025,2.607c0.002,3.238,0.001,6.477,0.001,9.715c0,0.295,0,0.589,0,0.925c-1.036,0-2.007,0-3.07,0
	c0-0.307,0-0.597,0-0.888c0-3.478,0.021-6.956-0.016-10.435c-0.009-0.827-0.136-1.674-0.351-2.474
	c-0.316-1.178-1.179-1.819-2.373-2.046c-1.768-0.335-3.347-0.036-4.571,1.379c-0.764,0.882-1.182,1.942-1.316,3.092
	c-0.101,0.861-0.148,1.731-0.154,2.599c-0.019,2.608-0.007,5.217-0.007,7.826C384.744,436.312,384.744,436.607,384.744,436.985z"/>
<path fill-rule="evenodd" clip-rule="evenodd" fill="#BA332F" d="M283.947,354.914c1.352,0,2.662,0,4.034,0
	c0,8.128,0,16.26,0,24.443c-1.33,0-2.659,0-4.034,0C283.947,371.232,283.947,363.123,283.947,354.914z"/>
<path fill-rule="evenodd" clip-rule="evenodd" fill="#BA332F" d="M573.59,354.906c1.365,0,2.675,0,4.041,0
	c0,8.145,0,16.279,0,24.459c-1.34,0-2.67,0-4.041,0C573.59,371.227,573.59,363.114,573.59,354.906z"/>
<path fill-rule="evenodd" clip-rule="evenodd" fill="#BA332F" d="M388.389,354.906c1.375,0,2.684,0,4.047,0
	c0,8.155,0,16.284,0,24.459c-1.348,0-2.677,0-4.047,0C388.389,371.217,388.389,363.109,388.389,354.906z"/>
<path fill-rule="evenodd" clip-rule="evenodd" fill="#BA332F" d="M497.963,354.914c1.353,0,2.662,0,4.035,0
	c0,8.129,0,16.26,0,24.443c-1.331,0-2.66,0-4.035,0C497.963,371.231,497.963,363.122,497.963,354.914z"/>
<path fill-rule="evenodd" clip-rule="evenodd" fill="#BA332F" d="M446.688,437.004c-1.262,0.228-2.502,0.383-3.75,0.093
	c-1.139-0.265-1.821-1.017-2.023-2.148c-0.125-0.703-0.174-1.428-0.177-2.143c-0.018-3.508-0.008-7.015-0.008-10.522
	c0-0.296,0-0.591,0-0.978c-0.836,0-1.628,0-2.473,0c0-0.885,0-1.681,0-2.561c0.775,0,1.569,0,2.458,0c0-1.742,0-3.405,0-5.109
	c1.073,0,2.052,0,3.136,0c0,1.655,0,3.315,0,5.056c0.986,0,1.872,0,2.803,0c0.159,0.867,0.084,1.658,0.058,2.56
	c-0.943,0-1.852,0-2.854,0c0,0.367,0,0.627,0,0.886c0,3.538,0,7.075,0.001,10.612c0,0.21,0.001,0.42,0.013,0.629
	c0.035,0.579,0.348,0.975,0.898,1.09c0.608,0.129,1.237,0.166,1.919,0.25C446.688,435.412,446.688,436.146,446.688,437.004z"/>
<path fill-rule="evenodd" clip-rule="evenodd" fill="#BA332F" d="M452.883,436.977c-1.047,0-2.026,0-3.052,0
	c0-6.066,0-12.105,0-18.203c1.023,0,2.022,0,3.052,0C452.883,424.842,452.883,430.856,452.883,436.977z"/>
<path fill-rule="evenodd" clip-rule="evenodd" fill="#BA332F" d="M392.547,345.756c0,1.535,0,3.023,0,4.57c-1.382,0-2.744,0-4.165,0
	c0-1.49,0-3.001,0-4.57C389.726,345.756,391.088,345.756,392.547,345.756z"/>
<path fill-rule="evenodd" clip-rule="evenodd" fill="#BA332F" d="M502.058,345.753c0,1.542,0,3.03,0,4.575c-1.375,0-2.735,0-4.162,0
	c0-1.502,0-3.011,0-4.575C499.254,345.753,500.613,345.753,502.058,345.753z"/>
<path fill-rule="evenodd" clip-rule="evenodd" fill="#BA332F" d="M288.024,350.346c-1.431,0-2.768,0-4.155,0c0-1.55,0-3.061,0-4.609
	c1.393,0,2.754,0,4.155,0C288.024,347.279,288.024,348.788,288.024,350.346z"/>
<path fill-rule="evenodd" clip-rule="evenodd" fill="#BA332F" d="M577.684,345.747c0,1.531,0,3.019,0,4.631
	c-0.668,0.002-1.342,0.006-2.016,0.007c-0.683,0.001-1.365,0-2.096,0c0-1.571,0-3.08,0-4.638
	C574.938,345.747,576.294,345.747,577.684,345.747z"/>
<path fill-rule="evenodd" clip-rule="evenodd" fill="#BA332F" d="M452.9,411.96c0,1.095,0,2.194,0,3.359c-1.016,0-2.04,0-3.109,0
	c0-1.104,0-2.2,0-3.294C450.393,411.84,451.838,411.808,452.9,411.96z"/>
<path fill="#368BC8" d="M331.749,225.075c0.019-0.032,0.038-0.065,0.057-0.097c-0.046-0.008-0.091-0.016-0.137-0.023
	C331.696,224.995,331.723,225.036,331.749,225.075z"/>
<path fill="#368BC8" d="M350.739,209.512c-0.017-0.021-0.034-0.043-0.05-0.064c-0.019,0.021-0.037,0.041-0.054,0.062
	c0.025,0.022,0.051,0.044,0.077,0.066C350.72,209.554,350.729,209.534,350.739,209.512z"/>
<path fill="#368BC8" d="M331.357,224.69c0.035,0.02,0.07,0.04,0.105,0.06c-0.009-0.037-0.018-0.075-0.026-0.111
	C331.41,224.656,331.384,224.673,331.357,224.69z"/>
<path fill="#368BC8" d="M331.482,224.761c-0.006-0.003-0.013-0.007-0.019-0.011c0.002,0.008,0.003,0.015,0.005,0.023
	c0.061,0.06,0.121,0.12,0.182,0.179c0.006,0.001,0.013,0.002,0.019,0.003c-0.003-0.004-0.006-0.009-0.009-0.013
	C331.6,224.882,331.541,224.821,331.482,224.761z"/>
<path fill="#368BC8" d="M421.564,199.641c0.018,0,0.036,0,0.054,0c0-0.135,0-0.27,0-0.405c-0.027,0-0.055,0-0.082,0
	c0,0.017,0,0.034,0,0.051c0.01,0,0.019,0,0.028,0C421.564,199.405,421.564,199.523,421.564,199.641z"/>
<path fill="#368BC8" d="M463.169,224.591c0.031-0.042,0.062-0.082,0.093-0.123c-0.034,0.037-0.068,0.073-0.104,0.11
	c-0.061,0.061-0.12,0.121-0.18,0.181c-0.048,0.053-0.096,0.105-0.144,0.157c0.052-0.048,0.104-0.096,0.155-0.145
	C463.05,224.711,463.109,224.651,463.169,224.591z"/>
<path fill="#368BC8" d="M444.096,209.189c0.012,0.017,0.023,0.033,0.035,0.048c0.02-0.022,0.039-0.044,0.076-0.085
	c-0.056,0.006-0.092,0.01-0.128,0.014c0.004,0.005,0.008,0.011,0.012,0.016c0.005,0,0.007-0.001,0.013-0.001
	C444.1,209.186,444.1,209.186,444.096,209.189z"/>
<path fill="#368BC8" d="M474.205,245.989c-0.001-0.005-0.002-0.01-0.002-0.016C474.203,245.979,474.204,245.984,474.205,245.989
	L474.205,245.989z"/>
<path fill="#368BC8" d="M443.856,209.605c0.002-0.005,0.005-0.011,0.007-0.016c-0.031,0.02-0.063,0.039-0.095,0.058
	C443.737,209.723,443.796,209.694,443.856,209.605z"/>
<polygon fill="#368BC8" points="415.005,264.458 415.008,264.443 414.996,264.449 "/>
<path fill="#FAD494" d="M326.354,280.648c0.191,1.082,0.763,1.972,1.195,2.892c4.963,10.55,11.924,19.56,20.958,26.942
	c6.592,5.388,13.893,9.55,21.919,12.555c5.451-11.531,12.646-21.828,21.815-30.854c-10.294-7.38-21.592-11.928-34.003-13.696
	C347.487,276.955,336.871,277.571,326.354,280.648z"/>
<path fill="#FAD494" d="M445.372,277.704c-7.733,0.248-15.304,1.531-22.67,3.947c-6.53,2.143-18.687,8.48-20.356,10.669
	c9.11,8.841,16.182,19.154,21.769,30.699c9.55-3.565,18.034-8.77,25.461-15.649c8.14-7.54,14.359-16.453,18.655-26.723
	C460.701,278.503,453.109,277.456,445.372,277.704z"/>
<path fill="#BA332F" d="M338.704,270.958c3.482-0.024,6.958,0.144,10.397,0.649c2.923,0.43,5.826,1.032,8.709,1.684
	c3.207,0.725,6.318,1.792,9.378,2.996c1.261,0.496,2.577,0.415,4.04,0.5c-2.744-1.854-49.981-29.789-50.713-30
	c-0.545,8.718,0.472,17.251,2.926,25.72c0.396-0.065,0.689-0.115,0.983-0.16c2.127-0.327,4.248-0.714,6.384-0.964
	C333.428,271.076,336.064,270.977,338.704,270.958z"/>
<path fill="#BA332F" d="M474.043,246.627c-16.954,10.062-33.768,20.038-50.543,30.087c1.463-0.001,2.902,0.033,4.264-0.538
	c3.397-1.424,6.928-2.428,10.509-3.259c2.708-0.628,5.431-1.185,8.21-1.406c2.207-0.175,4.413-0.442,6.623-0.482
	c2.753-0.05,5.515,0.002,8.262,0.178c2.293,0.146,4.572,0.52,6.854,0.818c0.94,0.123,1.873,0.313,2.879,0.484
	C473.53,264.042,474.541,255.495,474.043,246.627z"/>
<polygon fill="#368BC8" points="386.255,260.62 386.229,260.671 386.269,260.675 "/>
<polygon fill="#368BC8" points="414.957,264.356 414.95,264.37 414.966,264.365 "/>
<path fill="#368BC8" d="M414.95,264.37c-0.038,0.011-0.075,0.021-0.112,0.032c0.019,0.027,0.037,0.053,0.056,0.08
	C414.913,264.444,414.932,264.407,414.95,264.37z"/>
<path fill="#368BC8" d="M474.054,245.927c-0.073-0.519-0.146-0.981-0.2-1.445c-0.195-1.627-0.308-3.269-0.596-4.879
	c-0.481-2.691-0.972-5.389-1.646-8.037c-0.732-2.878-1.646-5.698-2.706-8.465c-0.663-1.733-1.372-3.451-2.167-5.135
	c-1.647-3.489-3.549-6.836-5.717-10.03c-2.054-3.024-4.307-5.895-6.787-8.574c-2.628-2.836-5.412-5.515-8.418-7.961
	c-3.885-3.16-8.018-5.934-12.439-8.278c-2.929-1.553-5.959-2.876-9.067-4.028c-3.858-1.431-7.812-2.514-11.848-3.299
	c-1.547-0.301-3.109-0.533-4.671-0.744c-1.565-0.212-3.136-0.38-4.707-0.527c-0.18-0.017-0.646-0.024-1.308-0.025
	c-1.472-0.083-2.952-0.137-4.445-0.137c-2.801,0-5.565,0.159-8.289,0.451c-0.407,0.024-0.734,0.048-0.946,0.072
	c-1.804,0.205-3.611,0.43-5.392,0.774c-4.032,0.781-8,1.826-11.872,3.211c-3.007,1.076-5.945,2.326-8.777,3.793
	c-2.837,1.469-5.58,3.105-8.216,4.928c-4.498,3.11-8.585,6.679-12.376,10.612c-2.061,2.138-3.982,4.392-5.762,6.762
	c-3.238,4.31-6.013,8.902-8.239,13.824c-1.756,3.88-3.188,7.872-4.269,11.982c-0.109,0.413-0.233,0.822-0.335,1.237
	c-0.527,2.165-0.933,4.36-1.354,6.55c-0.11,0.574-0.209,1.152-0.304,1.729c-0.27,1.879-0.463,3.783-0.594,5.704
	c17.95,8.009,35.858,15.998,53.766,23.987c-0.033-0.317-0.159-0.5-0.31-0.66c-1.007-1.068-2.017-2.134-3.03-3.197
	c-2.544-2.668-5.091-5.333-7.635-8.001c-2.441-2.559-4.88-5.119-7.321-7.679c-2.482-2.602-4.965-5.204-7.447-7.807
	c-2.503-2.624-5.003-5.251-7.51-7.87c-2.011-2.101-4.035-4.189-6.048-6.289c-0.808-0.844-1.605-1.698-2.4-2.553
	c-0.099-0.105-0.154-0.25-0.229-0.376c-0.059-0.065-0.118-0.131-0.176-0.196c-0.031-0.058-0.062-0.116-0.093-0.174
	c0.058,0.034,0.259,0.062,0.316,0.096c0.064,0.055,0.128,0.11,0.192,0.166c-0.016,0.016,0.111,0.112,0.173,0.164
	c3.223,2.672,6.446,5.346,9.664,8.024c3.011,2.508,6.012,5.028,9.026,7.531c2.991,2.484,5.999,4.946,8.99,7.43
	c2.715,2.255,5.411,4.534,8.123,6.792c3.516,2.927,7.04,5.847,10.564,8.766c0.111,0.091,0.262,0.133,0.55,0.275
	c-0.167-0.356-0.246-0.544-0.342-0.724c-1.35-2.528-2.708-5.053-4.053-7.584c-2.649-4.983-5.29-9.971-7.938-14.956
	c-1.373-2.583-2.758-5.162-4.13-7.746c-2.648-4.984-5.293-9.97-7.936-14.956c-1.328-2.507-2.651-5.017-3.971-7.528
	c-0.15-0.287-0.265-0.592-0.396-0.888c-0.028-0.063-0.057-0.126-0.084-0.189c0.043,0.029,0.521,0.471,0.638,0.639
	c2.324,3.368,4.638,6.743,6.962,10.11c2.341,3.394,4.696,6.777,7.037,10.17c4.055,5.875,8.103,11.756,12.153,17.633
	c2.661,3.862,5.321,7.725,7.985,11.583c0.104,0.15,0.258,0.264,0.484,0.49c-0.021-0.293-0.014-0.442-0.045-0.584
	c-0.48-2.238-0.964-4.475-1.452-6.711c-0.898-4.124-1.797-8.247-2.699-12.371c-1.079-4.937-2.159-9.873-3.242-14.809
	c-0.949-4.326-1.899-8.651-2.855-12.975c-0.7-3.163-1.425-6.32-2.11-9.487c-0.245-1.131-0.724-3.747-0.782-3.908
	c0.048-0.01,0.095-0.021,0.143-0.031c0.004,0.02,0.007,0.04,0.01,0.059c0.014-0.003,0.029-0.006,0.043-0.009
	c0.026,0.158,0.395,1.187,0.519,1.549c1.874,5.431,3.735,10.866,5.606,16.298c1.851,5.376,3.713,10.748,5.563,16.124
	c1.877,5.461,3.744,10.927,5.619,16.388c0.976,2.84,1.958,5.676,3.01,8.721c0.079-0.821,0.154-1.432,0.195-2.045
	c0.124-1.878,0.239-3.757,0.348-5.636c0.129-2.208,0.245-4.418,0.375-6.626c0.109-1.878,0.236-3.757,0.344-5.636
	c0.133-2.329,0.252-4.658,0.383-6.986c0.043-0.775,0.114-1.548,0.158-2.323c0.131-2.298,0.248-4.598,0.382-6.896
	c0.104-1.789,0.231-3.577,0.336-5.366c0.132-2.238,0.248-4.478,0.377-6.716c0.11-1.909,0.24-3.817,0.346-5.727
	c0.138-2.508,0.265-5.017,0.389-7.525c0.02-0.396,0.003-0.795,0.003-1.192c0.204,0.273,0.309,0.556,0.327,0.843
	c0.081,1.224,0.13,2.448,0.2,3.672c0.112,1.939,0.236,3.877,0.349,5.816c0.126,2.208,0.243,4.417,0.37,6.626
	c0.112,1.939,0.235,3.877,0.347,5.816c0.129,2.209,0.246,4.417,0.371,6.625c0.114,2,0.241,3.998,0.353,5.997
	c0.131,2.358,0.246,4.718,0.383,7.076c0.101,1.759,0.23,3.517,0.331,5.276c0.135,2.328,0.26,4.657,0.379,6.986
	c0.082,1.614,0.135,3.229,0.222,4.843c0.052,0.955,0.146,1.908,0.233,3.017c0.187-0.436,0.333-0.726,0.438-1.029
	c1.265-3.658,2.523-7.317,3.783-10.976c1.918-5.572,3.839-11.145,5.758-16.718c1.86-5.404,3.721-10.808,5.582-16.212
	c1.501-4.363,2.998-8.727,4.5-13.089c0.079-0.233,0.176-0.46,0.265-0.69c0.06,0.018,0.121,0.036,0.181,0.054
	c-4.408,20.174-8.818,40.348-13.228,60.521c0.214-0.087,0.321-0.217,0.416-0.354c2.424-3.483,4.857-6.961,7.27-10.453
	c3.806-5.506,7.593-11.025,11.396-16.533c4.331-6.27,8.669-12.535,13.009-18.798c0.969-1.395,3.014-4.334,3.07-4.397
	c0.073-0.106,0.146-0.212,0.218-0.319c0.021-0.049,0.012,0.241-0.042,0.369c-0.05,0.071-0.339,0.78-0.476,1.041
	c-0.808,1.531-1.631,3.053-2.443,4.581c-2.578,4.848-5.155,9.696-7.732,14.545c-1.443,2.713-2.886,5.427-4.33,8.141
	c-2.566,4.82-5.135,9.64-7.701,14.46c-1.921,3.608-3.844,7.216-5.756,10.83c-0.116,0.221-0.144,0.489-0.21,0.737
	c0.075-0.036,0.157-0.062,0.219-0.112c1.942-1.592,3.886-3.18,5.817-4.784c3.011-2.502,6.008-5.023,9.021-7.524
	c3.702-3.072,7.418-6.13,11.123-9.199c3.177-2.63,6.351-5.265,9.521-7.903c3.376-2.812,6.744-5.633,10.123-8.443
	c0.453-0.376,0.937-0.716,1.408-1.069c-0.021-0.021,0.11-0.098,0.076-0.056c0.001-0.001,0.002-0.001,0.003-0.002
	c0.064-0.055,0.13-0.109,0.195-0.164c0.066-0.054,0.1-0.022,0.051,0.047c-0.057,0.066-0.112,0.133-0.167,0.199
	c-0.136,0.192-0.251,0.403-0.412,0.572c-2.164,2.285-4.331,4.565-6.502,6.844c-2.479,2.603-4.964,5.204-7.446,7.807
	c-2.482,2.602-4.965,5.205-7.446,7.807c-2.503,2.624-5.007,5.248-7.51,7.872c-2.42,2.537-4.837,5.078-7.26,7.613
	c-1.761,1.842-3.53,3.676-5.294,5.515c-0.152,0.159-0.291,0.332-0.436,0.498c0.03,0.045,0.061,0.09,0.09,0.136
	c17.953-8.016,35.905-16.032,53.906-24.07C474.055,245.938,474.054,245.932,474.054,245.927z M443.937,209.292"/>
</svg>
